# xmcd CD database file
#
# Track frame offsets:
#	150
#	16235
#	31077
#	42565
#	53072
#	72947
#	87327
#	102555
#	112882
#	123835
#	133397
#	147837
#	162740
#	173885
#
# Disc length: 2512 seconds
#
# Revision: 2
# Processed by: cddbd v1.4b41PL1 Copyright (c) Steve Scherf et al.
# Submitted via: Feurio! 1.50.2ß - http://www.feurio.com
#
DISCID=c409ce0e
DTITLE=Silvester Stingl - Dämmerung
DYEAR=1900
DGENRE=
TTITLE0=Dämmerung
TTITLE1=Anette
TTITLE2=Kleine Möwe, flieg nach Helgoland
TTITLE3=Schön, Daß Du Wieder Bei Mir Ist
TTITLE4=Bleib Nicht Einsam Heut Nacht
TTITLE5=Lonely Days
TTITLE6=Easter Melody
TTITLE7=Electric Rhapsody
TTITLE8=Frauen Sind So Schön, Wenn Sie Lieben
TTITLE9=Swinging Ruppet
TTITLE10=Der Alte Cowboy
TTITLE11=Träume Von Dir
TTITLE12=Zwei verliebte In Paris
TTITLE13=Musik Zum Träumen
EXTD=
EXTT0=
EXTT1=
EXTT2=
EXTT3=
EXTT4=
EXTT5=
EXTT6=
EXTT7=
EXTT8=
EXTT9=
EXTT10=
EXTT11=
EXTT12=
EXTT13=
PLAYORDER=
